<?xml version="1.0"?>
<!-- Converted with SVG Converter - Version 0.9.5 (Compiled Mon May 30 09:08:51 2011) - Copyright (C) 2011 Nokia -->
<svg xmlns="http://www.w3.org/2000/svg" width="96px" x="0px" version="1.1" y="0px" height="96px" viewBox="0 0 96 96" xmlns:xlink="http://www.w3.org/1999/xlink" baseProfile="tiny" xml:space="preserve">
 <g id="DO_NOT_EDIT_-_BOUNDING_BOX">
  <rect width="96" fill="none" height="96" id="BOUNDING_BOX"/>
 </g>
 <g id="DO_NOT_EDIT_-_SHADOW">
  <path stroke-opacity="0.4" fill-opacity="0.4" id="SHADOW" d="M88.023,49c0,29.633-10.364,40-40,40c-29.635,0-40-10.367-40-40c0-29.634,10.366-40,40-40&#xd;&#xa;&#x9;&#x9;C77.659,9,88.023,19.365,88.023,49z"/>
 </g>
 <g id="GRAY_BACKGROUNDS">
  <g id="GRAY5">
   <linearGradient id="GRAY_5_1_" y1="8.0107" x1="47.9995" y2="87.9897" gradientUnits="userSpaceOnUse" x2="47.9995">
    <stop offset="0.0364" style="stop-color:#DDDDDD"/>
    <stop offset="0.4616" style="stop-color:#BFBFC1"/>
    <stop offset="1" style="stop-color:#949499"/>
   </linearGradient>
   <path fill="url(#GRAY_5_1_)" fill-rule="evenodd" id="GRAY_5" d="M8,47.989c0,29.633,10.365,40,40,40&#xd;&#xa;&#x9;&#x9;&#x9;c29.637,0,40-10.367,40-40c0-28.985-9.926-39.53-38.091-39.979h-3.817C17.928,8.459,8,19.004,8,47.989z"/>
   <linearGradient id="HIGHLIGHT_GRA5_1_" y1="8" x1="47.9995" y2="88.0005" gradientUnits="userSpaceOnUse" x2="47.9995">
    <stop offset="0.0364" style="stop-color:#FFFFFF"/>
    <stop offset="0.3366" style="stop-color:#E1E1E3"/>
    <stop offset="0.9874" style="stop-color:#96969A"/>
    <stop offset="1" style="stop-color:#949499"/>
   </linearGradient>
   <path stroke-opacity="0.25" fill="url(#HIGHLIGHT_GRA5_1_)" fill-opacity="0.25" id="HIGHLIGHT_GRA5" d="M48,8C18.365,8,8,18.365,8,48&#xd;&#xa;&#x9;&#x9;&#x9;c0,29.633,10.365,40,40,40c29.637,0,40-10.367,40-40C88,18.365,77.637,8,48,8z M48,87.023C18.842,87.023,9,77.176,9,48&#xd;&#xa;&#x9;&#x9;&#x9;S18.842,8.977,48,8.977S87,18.824,87,48S77.158,87.023,48,87.023z"/>
  </g>
  <g display="none" id="GRAY4">
   <linearGradient id="GRAY_4_1_" y1="8.0107" x1="47.9995" y2="87.9897" gradientUnits="userSpaceOnUse" x2="47.9995">
    <stop offset="0.0364" style="stop-color:#E0E0E0"/>
    <stop offset="0.3262" style="stop-color:#D6D6D6"/>
    <stop offset="0.8148" style="stop-color:#BCBCBC"/>
    <stop offset="1" style="stop-color:#B0B0B0"/>
   </linearGradient>
   <path fill="url(#GRAY_4_1_)" display="inline" fill-rule="evenodd" id="GRAY_4" d="M8,47.989&#xd;&#xa;&#x9;&#x9;&#x9;c0,29.633,10.365,40,40,40c29.637,0,40-10.367,40-40c0-28.985-9.926-39.53-38.091-39.979h-3.817C17.928,8.459,8,19.004,8,47.989z"/>
   <linearGradient id="HIGHLIGHT_GRA4_2_" y1="8" x1="47.9995" y2="88.0005" gradientUnits="userSpaceOnUse" x2="47.9995">
    <stop offset="0.0364" style="stop-color:#E8E8E8"/>
    <stop offset="0.2978" style="stop-color:#DEDEDE"/>
    <stop offset="0.7385" style="stop-color:#C4C4C4"/>
    <stop offset="1" style="stop-color:#B1B1B1"/>
   </linearGradient>
   <path fill="url(#HIGHLIGHT_GRA4_2_)" display="inline" id="HIGHLIGHT_GRA4_1_" d="M48,8C18.365,8,8,18.365,8,48&#xd;&#xa;&#x9;&#x9;&#x9;c0,29.633,10.365,40,40,40c29.637,0,40-10.367,40-40C88,18.365,77.637,8,48,8z M48,87.023C18.842,87.023,9,77.176,9,48&#xd;&#xa;&#x9;&#x9;&#x9;S18.842,8.977,48,8.977S87,18.824,87,48S77.158,87.023,48,87.023z"/>
  </g>
  <g display="none" id="GRAY3">
   <linearGradient id="GRAY_3_1_" y1="8.0107" x1="47.9995" y2="87.9897" gradientUnits="userSpaceOnUse" x2="47.9995">
    <stop offset="0.0364" style="stop-color:#E9E9E9"/>
    <stop offset="0.3218" style="stop-color:#DFDFDF"/>
    <stop offset="0.8028" style="stop-color:#C5C5C5"/>
    <stop offset="1" style="stop-color:#B8B8B8"/>
   </linearGradient>
   <path fill="url(#GRAY_3_1_)" display="inline" fill-rule="evenodd" id="GRAY_3" d="M8,47.989&#xd;&#xa;&#x9;&#x9;&#x9;c0,29.633,10.365,40,40,40c29.637,0,40-10.367,40-40c0-28.985-9.926-39.53-38.091-39.979h-3.817C17.928,8.459,8,19.004,8,47.989z"/>
   <linearGradient id="HIGHLIGHT_GRA3_2_" y1="8" x1="47.9995" y2="88.0005" gradientUnits="userSpaceOnUse" x2="47.9995">
    <stop offset="0.0364" style="stop-color:#EFEFEF"/>
    <stop offset="0.3133" style="stop-color:#E5E5E5"/>
    <stop offset="0.7799" style="stop-color:#CBCBCB"/>
    <stop offset="1" style="stop-color:#BCBCBC"/>
   </linearGradient>
   <path fill="url(#HIGHLIGHT_GRA3_2_)" display="inline" id="HIGHLIGHT_GRA3_1_" d="M48,8C18.365,8,8,18.365,8,48&#xd;&#xa;&#x9;&#x9;&#x9;c0,29.633,10.365,40,40,40c29.637,0,40-10.367,40-40C88,18.365,77.637,8,48,8z M48,87.023C18.842,87.023,9,77.176,9,48&#xd;&#xa;&#x9;&#x9;&#x9;S18.842,8.977,48,8.977S87,18.824,87,48S77.158,87.023,48,87.023z"/>
  </g>
  <g display="none" id="GRAY2">
   <linearGradient id="GRAY_2_1_" y1="8.0107" x1="47.9995" y2="87.9897" gradientUnits="userSpaceOnUse" x2="47.9995">
    <stop offset="0.0364" style="stop-color:#EEEEEE"/>
    <stop offset="0.3262" style="stop-color:#E4E4E4"/>
    <stop offset="0.8148" style="stop-color:#CACACA"/>
    <stop offset="1" style="stop-color:#BEBEBE"/>
   </linearGradient>
   <path fill="url(#GRAY_2_1_)" display="inline" fill-rule="evenodd" id="GRAY_2" d="M8,47.989&#xd;&#xa;&#x9;&#x9;&#x9;c0,29.633,10.365,40,40,40c29.637,0,40-10.367,40-40c0-28.985-9.926-39.53-38.091-39.979h-3.817C17.928,8.459,8,19.004,8,47.989z"/>
   <linearGradient id="HIGHLIGHT_GRA2_1_" y1="8" x1="47.9995" y2="88.0005" gradientUnits="userSpaceOnUse" x2="47.9995">
    <stop offset="0.0364" style="stop-color:#F2F2F2"/>
    <stop offset="0.3133" style="stop-color:#E8E8E8"/>
    <stop offset="0.7799" style="stop-color:#CECECE"/>
    <stop offset="1" style="stop-color:#BFBFBF"/>
   </linearGradient>
   <path fill="url(#HIGHLIGHT_GRA2_1_)" display="inline" id="HIGHLIGHT_GRA2" d="M48,8C18.365,8,8,18.365,8,48&#xd;&#xa;&#x9;&#x9;&#x9;c0,29.633,10.365,40,40,40c29.637,0,40-10.367,40-40C88,18.365,77.637,8,48,8z M48,87.023C18.842,87.023,9,77.176,9,48&#xd;&#xa;&#x9;&#x9;&#x9;S18.842,8.977,48,8.977S87,18.824,87,48S77.158,87.023,48,87.023z"/>
  </g>
  <g display="none" id="GRAY1">
   <linearGradient id="GRAY_1_1_" y1="8.0107" x1="47.9995" y2="87.9897" gradientUnits="userSpaceOnUse" x2="47.9995">
    <stop offset="0.0364" style="stop-color:#F9F9F9"/>
    <stop offset="0.2102" style="stop-color:#EFEFEF"/>
    <stop offset="0.5042" style="stop-color:#D6D6D5"/>
    <stop offset="0.8303" style="stop-color:#B2B2B0"/>
    <stop offset="1" style="stop-color:#ABABA8"/>
   </linearGradient>
   <path fill="url(#GRAY_1_1_)" display="inline" fill-rule="evenodd" id="GRAY_1" d="M8,47.989&#xd;&#xa;&#x9;&#x9;&#x9;c0,29.633,10.365,40,40,40c29.637,0,40-10.367,40-40c0-28.985-9.926-39.53-38.091-39.979h-3.817C17.928,8.459,8,19.004,8,47.989z"/>
   <linearGradient id="HIGHLIGHT_GRA1_1_" y1="8" x1="47.9995" y2="88.0005" gradientUnits="userSpaceOnUse" x2="47.9995">
    <stop offset="0.0364" style="stop-color:#FCFCFC"/>
    <stop offset="0.2262" style="stop-color:#F3F3F2"/>
    <stop offset="0.5471" style="stop-color:#DAD9D8"/>
    <stop offset="0.9576" style="stop-color:#B2B0AD"/>
    <stop offset="1" style="stop-color:#ADABA8"/>
   </linearGradient>
   <path fill="url(#HIGHLIGHT_GRA1_1_)" display="inline" id="HIGHLIGHT_GRA1" d="M48,8C18.365,8,8,18.365,8,48&#xd;&#xa;&#x9;&#x9;&#x9;c0,29.633,10.365,40,40,40c29.637,0,40-10.367,40-40C88,18.365,77.637,8,48,8z M48,87.023C18.842,87.023,9,77.176,9,48&#xd;&#xa;&#x9;&#x9;&#x9;S18.842,8.977,48,8.977S87,18.824,87,48S77.158,87.023,48,87.023z"/>
  </g>
 </g>
 <g display="none" id="ORANGE_BACKGROUNDS">
  <g display="inline" id="ORANGE_5">
   <linearGradient id="RED_x2F_ORANGE_5_2_" y1="8.0107" x1="47.9995" y2="87.9897" gradientUnits="userSpaceOnUse" x2="47.9995">
    <stop offset="0" style="stop-color:#FFDB62"/>
    <stop offset="0.1393" style="stop-color:#FAD15C"/>
    <stop offset="0.3741" style="stop-color:#EDB74D"/>
    <stop offset="0.4848" style="stop-color:#E6A844"/>
    <stop offset="1" style="stop-color:#C96B25"/>
   </linearGradient>
   <path fill="url(#RED_x2F_ORANGE_5_2_)" id="RED_x2F_ORANGE_5_1_" d="M8,47.988c0,29.634,10.365,40.001,40,40.001&#xd;&#xa;&#x9;&#x9;&#x9;c29.637,0,40-10.367,40-40.001c0-28.984-9.926-39.529-38.091-39.978h-3.817C17.928,8.459,8,19.004,8,47.988z"/>
   <linearGradient id="HIGHLIGHTS_RO5_1_" y1="8.2559" x1="47.9995" y2="87.5043" gradientUnits="userSpaceOnUse" x2="47.9995">
    <stop offset="0" style="stop-color:#FFFFFF"/>
    <stop offset="0.0958" style="stop-color:#FDF8F5"/>
    <stop offset="0.2579" style="stop-color:#F6E6DB"/>
    <stop offset="0.4666" style="stop-color:#EBC9AF"/>
    <stop offset="0.7136" style="stop-color:#DCA073"/>
    <stop offset="0.9904" style="stop-color:#CA6D28"/>
    <stop offset="1" style="stop-color:#C96B25"/>
   </linearGradient>
   <path stroke-opacity="0.25" fill="url(#HIGHLIGHTS_RO5_1_)" fill-opacity="0.25" id="HIGHLIGHTS_RO5" d="M48,8C18.365,8,8,18.365,8,48&#xd;&#xa;&#x9;&#x9;&#x9;c0,29.633,10.365,40,40,40c29.637,0,40-10.367,40-40C88,18.365,77.637,8,48,8z M48,87.023C18.842,87.023,9,77.176,9,48&#xd;&#xa;&#x9;&#x9;&#x9;S18.842,8.977,48,8.977S87,18.824,87,48S77.158,87.023,48,87.023z"/>
  </g>
  <g id="ORANGE_4">
   <linearGradient id="RED_x2F_ORANGE_4_1_" y1="8.0107" x1="47.9995" y2="87.9897" gradientUnits="userSpaceOnUse" x2="47.9995">
    <stop offset="0.0364" style="stop-color:#FBBF60"/>
    <stop offset="0.2109" style="stop-color:#F8B556"/>
    <stop offset="0.503" style="stop-color:#F19B3D"/>
    <stop offset="1" style="stop-color:#C76121"/>
   </linearGradient>
   <path fill="url(#RED_x2F_ORANGE_4_1_)" display="inline" id="RED_x2F_ORANGE_4_2_" d="M8,47.988c0,29.634,10.365,40.001,40,40.001&#xd;&#xa;&#x9;&#x9;&#x9;c29.637,0,40-10.367,40-40.001c0-28.984-9.926-39.529-38.091-39.978h-3.817C17.928,8.459,8,19.004,8,47.988z"/>
   <linearGradient id="HIGHLIGHTS_RO4_2_" y1="8.2559" x1="47.9995" y2="87.5043" gradientUnits="userSpaceOnUse" x2="47.9995">
    <stop offset="0.0364" style="stop-color:#FFFFFF"/>
    <stop offset="0.1274" style="stop-color:#FDF8F5"/>
    <stop offset="0.2815" style="stop-color:#F6E5DB"/>
    <stop offset="0.4799" style="stop-color:#EBC6AF"/>
    <stop offset="0.7147" style="stop-color:#DC9C73"/>
    <stop offset="0.9778" style="stop-color:#C96628"/>
    <stop offset="1" style="stop-color:#C76121"/>
   </linearGradient>
   <path stroke-opacity="0.25" fill="url(#HIGHLIGHTS_RO4_2_)" display="inline" fill-opacity="0.25" id="HIGHLIGHTS_RO4_1_" d="M48,8C18.365,8,8,18.365,8,48&#xd;&#xa;&#x9;&#x9;&#x9;c0,29.633,10.365,40,40,40c29.637,0,40-10.367,40-40C88,18.365,77.637,8,48,8z M48,87.023C18.842,87.023,9,77.176,9,48&#xd;&#xa;&#x9;&#x9;&#x9;S18.842,8.977,48,8.977S87,18.824,87,48S77.158,87.023,48,87.023z"/>
  </g>
  <g id="ORANGE_3">
   <linearGradient id="RED_x2F_ORANGE_3_2_" y1="8.0107" x1="47.9995" y2="87.9897" gradientUnits="userSpaceOnUse" x2="47.9995">
    <stop offset="0.0364" style="stop-color:#F6B85E"/>
    <stop offset="0.2008" style="stop-color:#F4AE5A"/>
    <stop offset="0.478" style="stop-color:#EE9451"/>
    <stop offset="0.5394" style="stop-color:#EC8D4E"/>
    <stop offset="0.8228" style="stop-color:#D46A3B"/>
    <stop offset="1" style="stop-color:#C95932"/>
   </linearGradient>
   <path fill="url(#RED_x2F_ORANGE_3_2_)" display="inline" id="RED_x2F_ORANGE_3_1_" d="M8,47.988c0,29.634,10.365,40.001,40,40.001&#xd;&#xa;&#x9;&#x9;&#x9;c29.637,0,40-10.367,40-40.001c0-28.984-9.926-39.529-38.091-39.978h-3.817C17.928,8.459,8,19.004,8,47.988z"/>
   <linearGradient id="HIGHLIGHTS_RO3_2_" y1="8.2559" x1="47.9995" y2="87.5043" gradientUnits="userSpaceOnUse" x2="47.9995">
    <stop offset="0.0364" style="stop-color:#FFFFFF"/>
    <stop offset="0.133" style="stop-color:#FCF7F5"/>
    <stop offset="0.2967" style="stop-color:#F5E2DB"/>
    <stop offset="0.5073" style="stop-color:#EABFAF"/>
    <stop offset="0.7537" style="stop-color:#DA8F74"/>
    <stop offset="1" style="stop-color:#C95932"/>
   </linearGradient>
   <path stroke-opacity="0.25" fill="url(#HIGHLIGHTS_RO3_2_)" display="inline" fill-opacity="0.25" id="HIGHLIGHTS_RO3_1_" d="M48,8C18.365,8,8,18.365,8,48&#xd;&#xa;&#x9;&#x9;&#x9;c0,29.633,10.365,40,40,40c29.637,0,40-10.367,40-40C88,18.365,77.637,8,48,8z M48,87.023C18.842,87.023,9,77.176,9,48&#xd;&#xa;&#x9;&#x9;&#x9;S18.842,8.977,48,8.977S87,18.824,87,48S77.158,87.023,48,87.023z"/>
  </g>
  <g id="ORANGE_2">
   <linearGradient id="RED_x2F_ORANGE_2_1_" y1="8.0107" x1="47.9995" y2="87.9897" gradientUnits="userSpaceOnUse" x2="47.9995">
    <stop offset="0.0364" style="stop-color:#FAA824"/>
    <stop offset="0.3742" style="stop-color:#EA8A20"/>
    <stop offset="1" style="stop-color:#C74A17"/>
   </linearGradient>
   <path fill="url(#RED_x2F_ORANGE_2_1_)" display="inline" id="RED_x2F_ORANGE_2_2_" d="M8,47.988c0,29.634,10.365,40.001,40,40.001&#xd;&#xa;&#x9;&#x9;&#x9;c29.637,0,40-10.367,40-40.001c0-28.984-9.926-39.529-38.091-39.978h-3.817C17.928,8.459,8,19.004,8,47.988z"/>
   <linearGradient id="HIGHLIGHTS_RO2_1_" y1="8.2559" x1="47.9995" y2="87.5043" gradientUnits="userSpaceOnUse" x2="47.9995">
    <stop offset="0.0364" style="stop-color:#FFFFFF"/>
    <stop offset="0.185" style="stop-color:#F8E8E1"/>
    <stop offset="0.5097" style="stop-color:#E5AC95"/>
    <stop offset="0.9833" style="stop-color:#C84D1B"/>
    <stop offset="1" style="stop-color:#C74A17"/>
   </linearGradient>
   <path stroke-opacity="0.25" fill="url(#HIGHLIGHTS_RO2_1_)" display="inline" fill-opacity="0.25" id="HIGHLIGHTS_RO2_2_" d="M48,8C18.365,8,8,18.365,8,48&#xd;&#xa;&#x9;&#x9;&#x9;c0,29.633,10.365,40,40,40c29.637,0,40-10.367,40-40C88,18.365,77.637,8,48,8z M48,87.023C18.842,87.023,9,77.176,9,48&#xd;&#xa;&#x9;&#x9;&#x9;S18.842,8.977,48,8.977S87,18.824,87,48S77.158,87.023,48,87.023z"/>
  </g>
  <g id="ORANGE_1">
   <linearGradient id="RED_x2F_ORANGE_1_2_" y1="8.0107" x1="47.9995" y2="87.9897" gradientUnits="userSpaceOnUse" x2="47.9995">
    <stop offset="0.0364" style="stop-color:#FF8A36"/>
    <stop offset="0.3489" style="stop-color:#EF7130"/>
    <stop offset="1" style="stop-color:#C73321"/>
   </linearGradient>
   <path fill="url(#RED_x2F_ORANGE_1_2_)" display="inline" id="RED_x2F_ORANGE_1_1_" d="M8,47.988c0,29.634,10.365,40.001,40,40.001&#xd;&#xa;&#x9;&#x9;&#x9;c29.637,0,40-10.367,40-40.001c0-28.984-9.926-39.529-38.091-39.978h-3.817C17.928,8.459,8,19.004,8,47.988z"/>
   <linearGradient id="HIGHLIGHTS_RO1_2_" y1="8.2559" x1="47.9995" y2="87.5043" gradientUnits="userSpaceOnUse" x2="47.9995">
    <stop offset="0.0364" style="stop-color:#FFFFFF"/>
    <stop offset="0.1274" style="stop-color:#FCF7F5"/>
    <stop offset="0.2815" style="stop-color:#F5E0DB"/>
    <stop offset="0.4799" style="stop-color:#EABBAF"/>
    <stop offset="0.7147" style="stop-color:#DA8873"/>
    <stop offset="0.9778" style="stop-color:#C64828"/>
    <stop offset="1" style="stop-color:#C44221"/>
   </linearGradient>
   <path stroke-opacity="0.25" fill="url(#HIGHLIGHTS_RO1_2_)" display="inline" fill-opacity="0.25" id="HIGHLIGHTS_RO1_1_" d="M48,8C18.365,8,8,18.365,8,48&#xd;&#xa;&#x9;&#x9;&#x9;c0,29.633,10.365,40,40,40c29.637,0,40-10.367,40-40C88,18.365,77.637,8,48,8z M48,87.023C18.842,87.023,9,77.176,9,48&#xd;&#xa;&#x9;&#x9;&#x9;S18.842,8.977,48,8.977S87,18.824,87,48S77.158,87.023,48,87.023z"/>
  </g>
 </g>
 <g display="none" id="GREEN_BACKGROUNDS">
  <g display="inline" id="GREEN4">
   <linearGradient id="GREEN_4_1_" y1="8.0107" x1="47.9995" y2="87.9897" gradientUnits="userSpaceOnUse" x2="47.9995">
    <stop offset="0.0364" style="stop-color:#6BAB40"/>
    <stop offset="0.6061" style="stop-color:#537734"/>
    <stop offset="1" style="stop-color:#4F5C26"/>
   </linearGradient>
   <path fill="url(#GREEN_4_1_)" fill-rule="evenodd" id="GREEN_4_3_" d="M8,47.989c0,29.633,10.365,40,40,40&#xd;&#xa;&#x9;&#x9;&#x9;c29.637,0,40-10.367,40-40c0-28.985-9.926-39.53-38.091-39.979h-3.817C17.928,8.459,8,19.004,8,47.989z"/>
   <linearGradient id="HIGHLIGHT_GR4_1_" y1="8" x1="47.9995" y2="88.0005" gradientUnits="userSpaceOnUse" x2="47.9995">
    <stop offset="0.0364" style="stop-color:#FFFFFF"/>
    <stop offset="0.8255" style="stop-color:#6F7A4E"/>
    <stop offset="1" style="stop-color:#4F5C26"/>
   </linearGradient>
   <path stroke-opacity="0.25" fill="url(#HIGHLIGHT_GR4_1_)" fill-opacity="0.25" id="HIGHLIGHT_GR4" d="M48,8C18.365,8,8,18.365,8,48c0,29.633,10.365,40,40,40&#xd;&#xa;&#x9;&#x9;&#x9;c29.637,0,40-10.367,40-40C88,18.365,77.637,8,48,8z M48,87.023C18.842,87.023,9,77.176,9,48S18.842,8.977,48,8.977&#xd;&#xa;&#x9;&#x9;&#x9;S87,18.824,87,48S77.158,87.023,48,87.023z"/>
  </g>
  <g id="GREEN3">
   <linearGradient id="GREEN_3_1_" y1="8.0107" x1="47.9995" y2="87.9897" gradientUnits="userSpaceOnUse" x2="47.9995">
    <stop offset="0.0364" style="stop-color:#70B83B"/>
    <stop offset="0.2066" style="stop-color:#6AAE37"/>
    <stop offset="0.4945" style="stop-color:#5B942B"/>
    <stop offset="0.8626" style="stop-color:#426917"/>
    <stop offset="1" style="stop-color:#38570F"/>
   </linearGradient>
   <path fill="url(#GREEN_3_1_)" display="inline" fill-rule="evenodd" id="GREEN_3_2_" d="M8,47.989&#xd;&#xa;&#x9;&#x9;&#x9;c0,29.633,10.365,40,40,40c29.637,0,40-10.367,40-40c0-28.985-9.926-39.53-38.091-39.979h-3.817C17.928,8.459,8,19.004,8,47.989z"/>
   <linearGradient id="HIGHLIGHT_GR3_1_" y1="8" x1="47.9995" y2="88.0005" gradientUnits="userSpaceOnUse" x2="47.9995">
    <stop offset="0.0364" style="stop-color:#FFFFFF"/>
    <stop offset="0.1222" style="stop-color:#F7F8F5"/>
    <stop offset="0.2675" style="stop-color:#E1E5DB"/>
    <stop offset="0.4545" style="stop-color:#BDC7AF"/>
    <stop offset="0.6759" style="stop-color:#8B9D73"/>
    <stop offset="0.9238" style="stop-color:#4D6828"/>
    <stop offset="1" style="stop-color:#38570F"/>
   </linearGradient>
   <path stroke-opacity="0.25" fill="url(#HIGHLIGHT_GR3_1_)" display="inline" fill-opacity="0.25" id="HIGHLIGHT_GR3" d="M48,8C18.365,8,8,18.365,8,48&#xd;&#xa;&#x9;&#x9;&#x9;c0,29.633,10.365,40,40,40c29.637,0,40-10.367,40-40C88,18.365,77.637,8,48,8z M48,87.023C18.842,87.023,9,77.176,9,48&#xd;&#xa;&#x9;&#x9;&#x9;S18.842,8.977,48,8.977S87,18.824,87,48S77.158,87.023,48,87.023z"/>
  </g>
  <g id="GREEN2">
   <linearGradient id="GREEN_2_1_" y1="8.0107" x1="47.9995" y2="87.9897" gradientUnits="userSpaceOnUse" x2="47.9995">
    <stop offset="0.0364" style="stop-color:#75B561"/>
    <stop offset="0.223" style="stop-color:#6EAB5E"/>
    <stop offset="0.5376" style="stop-color:#5B9157"/>
    <stop offset="0.6667" style="stop-color:#528454"/>
    <stop offset="1" style="stop-color:#4B6145"/>
   </linearGradient>
   <path fill="url(#GREEN_2_1_)" display="inline" fill-rule="evenodd" id="GREEN_2_2_" d="M8,47.989&#xd;&#xa;&#x9;&#x9;&#x9;c0,29.633,10.365,40,40,40c29.637,0,40-10.367,40-40c0-28.985-9.926-39.53-38.091-39.979h-3.817C17.928,8.459,8,19.004,8,47.989z"/>
   <linearGradient id="HIGHLIGHT_GR2_1_" y1="8" x1="47.9995" y2="88.0005" gradientUnits="userSpaceOnUse" x2="47.9995">
    <stop offset="0.0364" style="stop-color:#FFFFFF"/>
    <stop offset="0.1404" style="stop-color:#F5F7F5"/>
    <stop offset="0.3165" style="stop-color:#DCE0DB"/>
    <stop offset="0.543" style="stop-color:#B2BBAF"/>
    <stop offset="0.8084" style="stop-color:#798974"/>
    <stop offset="1" style="stop-color:#4B6145"/>
   </linearGradient>
   <path stroke-opacity="0.25" fill="url(#HIGHLIGHT_GR2_1_)" display="inline" fill-opacity="0.25" id="HIGHLIGHT_GR2" d="M48,8C18.365,8,8,18.365,8,48&#xd;&#xa;&#x9;&#x9;&#x9;c0,29.633,10.365,40,40,40c29.637,0,40-10.367,40-40C88,18.365,77.637,8,48,8z M48,87.023C18.842,87.023,9,77.176,9,48&#xd;&#xa;&#x9;&#x9;&#x9;S18.842,8.977,48,8.977S87,18.824,87,48S77.158,87.023,48,87.023z"/>
  </g>
  <g id="GREEN1">
   <linearGradient id="GREEN_1_1_" y1="8.0107" x1="47.9995" y2="87.9897" gradientUnits="userSpaceOnUse" x2="47.9995">
    <stop offset="0.0364" style="stop-color:#9CD061"/>
    <stop offset="0.219" style="stop-color:#94C957"/>
    <stop offset="0.5269" style="stop-color:#7DB63D"/>
    <stop offset="0.6909" style="stop-color:#6FAA2C"/>
    <stop offset="1" style="stop-color:#4A8021"/>
   </linearGradient>
   <path fill="url(#GREEN_1_1_)" display="inline" fill-rule="evenodd" id="GREEN_1_2_" d="M8,47.989&#xd;&#xa;&#x9;&#x9;&#x9;c0,29.633,10.365,40,40,40c29.637,0,40-10.367,40-40c0-28.985-9.926-39.53-38.091-39.979h-3.817C17.928,8.459,8,19.004,8,47.989z"/>
   <linearGradient id="HIGHLIGHT_GR1_1_" y1="8" x1="47.9995" y2="88.0005" gradientUnits="userSpaceOnUse" x2="47.9995">
    <stop offset="0.0364" style="stop-color:#FFFFFF"/>
    <stop offset="0.1274" style="stop-color:#F7F9F5"/>
    <stop offset="0.2815" style="stop-color:#E1EADB"/>
    <stop offset="0.4799" style="stop-color:#BED1AF"/>
    <stop offset="0.7147" style="stop-color:#8DAF73"/>
    <stop offset="0.9778" style="stop-color:#4F8428"/>
    <stop offset="1" style="stop-color:#4A8021"/>
   </linearGradient>
   <path stroke-opacity="0.25" fill="url(#HIGHLIGHT_GR1_1_)" display="inline" fill-opacity="0.25" id="HIGHLIGHT_GR1" d="M48,8C18.365,8,8,18.365,8,48&#xd;&#xa;&#x9;&#x9;&#x9;c0,29.633,10.365,40,40,40c29.637,0,40-10.367,40-40C88,18.365,77.637,8,48,8z M48,87.023C18.842,87.023,9,77.176,9,48&#xd;&#xa;&#x9;&#x9;&#x9;S18.842,8.977,48,8.977S87,18.824,87,48S77.158,87.023,48,87.023z"/>
  </g>
 </g>
 <g id="BLUE_BACKGROUNDS">
  <g id="BLUE_4_2_">
   <linearGradient id="BLUE_4_3_" y1="8.0107" x1="47.9995" y2="87.9897" gradientUnits="userSpaceOnUse" x2="47.9995">
    <stop offset="0.0364" style="stop-color:#4791D9"/>
    <stop offset="0.2496" style="stop-color:#4288CF"/>
    <stop offset="0.6102" style="stop-color:#366EB5"/>
    <stop offset="1" style="stop-color:#264C91"/>
   </linearGradient>
   <path fill="url(#BLUE_4_3_)" id="BLUE_4_1_" d="M8,47.989c0,29.633,10.365,40,40,40c29.637,0,40-10.367,40-40&#xd;&#xa;&#x9;&#x9;&#x9;c0-28.985-9.926-39.53-38.091-39.979h-3.817C17.928,8.459,8,19.004,8,47.989z"/>
   <linearGradient id="HIGHLIGHT_BLU4_1_" y1="8.2559" x1="47.9995" y2="87.5043" gradientUnits="userSpaceOnUse" x2="47.9995">
    <stop offset="0.0364" style="stop-color:#FFFFFF"/>
    <stop offset="0.129" style="stop-color:#F5F7FA"/>
    <stop offset="0.2858" style="stop-color:#DBE1ED"/>
    <stop offset="0.4876" style="stop-color:#AFBDD7"/>
    <stop offset="0.7265" style="stop-color:#738CB8"/>
    <stop offset="0.9942" style="stop-color:#284D92"/>
    <stop offset="1" style="stop-color:#264C91"/>
   </linearGradient>
   <path stroke-opacity="0.25" fill="url(#HIGHLIGHT_BLU4_1_)" fill-opacity="0.25" id="HIGHLIGHT_BLU4" d="M48,8C18.365,8,8,18.365,8,48&#xd;&#xa;&#x9;&#x9;&#x9;c0,29.633,10.365,40,40,40c29.637,0,40-10.367,40-40C88,18.365,77.637,8,48,8z M48,87.023C18.842,87.023,9,77.176,9,48&#xd;&#xa;&#x9;&#x9;&#x9;S18.842,8.977,48,8.977S87,18.824,87,48S77.158,87.023,48,87.023z"/>
  </g>
  <g display="none" id="BLUE_3_2_">
   <linearGradient id="BLUE_3_3_" y1="8.0107" x1="47.9995" y2="87.9897" gradientUnits="userSpaceOnUse" x2="47.9995">
    <stop offset="0.0364" style="stop-color:#66A2D3"/>
    <stop offset="0.2002" style="stop-color:#5C9BCE"/>
    <stop offset="0.4773" style="stop-color:#4289C1"/>
    <stop offset="0.8316" style="stop-color:#176CAB"/>
    <stop offset="1" style="stop-color:#005DA0"/>
   </linearGradient>
   <path fill="url(#BLUE_3_3_)" display="inline" id="BLUE_3_1_" d="M8,47.989c0,29.633,10.365,40,40,40c29.637,0,40-10.367,40-40&#xd;&#xa;&#x9;&#x9;&#x9;c0-28.985-9.926-39.53-38.091-39.979h-3.817C17.928,8.459,8,19.004,8,47.989z"/>
   <linearGradient id="HIGHLIGHT_BLU3_1_" y1="8.2559" x1="47.9995" y2="87.5043" gradientUnits="userSpaceOnUse" x2="47.9995">
    <stop offset="0.0364" style="stop-color:#FFFFFF"/>
    <stop offset="0.1184" style="stop-color:#F5F9FC"/>
    <stop offset="0.2572" style="stop-color:#DBE9F5"/>
    <stop offset="0.4359" style="stop-color:#AFCFEA"/>
    <stop offset="0.6475" style="stop-color:#73ACDA"/>
    <stop offset="0.8842" style="stop-color:#287FC6"/>
    <stop offset="1" style="stop-color:#0067BC"/>
   </linearGradient>
   <path stroke-opacity="0.25" fill="url(#HIGHLIGHT_BLU3_1_)" display="inline" fill-opacity="0.25" id="HIGHLIGHT_BLU3" d="M48,8C18.365,8,8,18.365,8,48&#xd;&#xa;&#x9;&#x9;&#x9;c0,29.633,10.365,40,40,40c29.637,0,40-10.367,40-40C88,18.365,77.637,8,48,8z M48,87.023C18.842,87.023,9,77.176,9,48&#xd;&#xa;&#x9;&#x9;&#x9;S18.842,8.977,48,8.977S87,18.824,87,48S77.158,87.023,48,87.023z"/>
  </g>
  <g display="none" id="BLUE_2_2_">
   <linearGradient id="BLUE_2_3_" y1="8.0107" x1="47.9995" y2="87.9897" gradientUnits="userSpaceOnUse" x2="47.9995">
    <stop offset="0.0364" style="stop-color:#63B3E0"/>
    <stop offset="0.204" style="stop-color:#59ACDA"/>
    <stop offset="0.4875" style="stop-color:#3F99C9"/>
    <stop offset="0.8499" style="stop-color:#147BAE"/>
    <stop offset="1" style="stop-color:#006DA2"/>
   </linearGradient>
   <path fill="url(#BLUE_2_3_)" display="inline" id="BLUE_2_1_" d="M8,47.989c0,29.633,10.365,40,40,40c29.637,0,40-10.367,40-40&#xd;&#xa;&#x9;&#x9;&#x9;c0-28.985-9.926-39.53-38.091-39.979h-3.817C17.928,8.459,8,19.004,8,47.989z"/>
   <linearGradient id="HIGHLIGHT_BLU2_1_" y1="8.2559" x1="47.9995" y2="87.5043" gradientUnits="userSpaceOnUse" x2="47.9995">
    <stop offset="0.0364" style="stop-color:#FFFFFF"/>
    <stop offset="0.1233" style="stop-color:#F5F9FB"/>
    <stop offset="0.2704" style="stop-color:#DBE7F0"/>
    <stop offset="0.4598" style="stop-color:#AFCBDD"/>
    <stop offset="0.6841" style="stop-color:#73A4C4"/>
    <stop offset="0.9352" style="stop-color:#2873A4"/>
    <stop offset="1" style="stop-color:#13659B"/>
   </linearGradient>
   <path stroke-opacity="0.25" fill="url(#HIGHLIGHT_BLU2_1_)" display="inline" fill-opacity="0.25" id="HIGHLIGHT_BLU2" d="M48,8C18.365,8,8,18.365,8,48&#xd;&#xa;&#x9;&#x9;&#x9;c0,29.633,10.365,40,40,40c29.637,0,40-10.367,40-40C88,18.365,77.637,8,48,8z M48,87.023C18.842,87.023,9,77.176,9,48&#xd;&#xa;&#x9;&#x9;&#x9;S18.842,8.977,48,8.977S87,18.824,87,48S77.158,87.023,48,87.023z"/>
  </g>
  <g display="none" id="BLUE_1_1_">
   <linearGradient id="BLUE_1_3_" y1="8.0107" x1="47.9995" y2="87.9897" gradientUnits="userSpaceOnUse" x2="47.9995">
    <stop offset="0.0364" style="stop-color:#6BCFDB"/>
    <stop offset="0.1944" style="stop-color:#61C7D4"/>
    <stop offset="0.4617" style="stop-color:#47B0C3"/>
    <stop offset="0.8033" style="stop-color:#1C8CA6"/>
    <stop offset="1" style="stop-color:#007594"/>
   </linearGradient>
   <path fill="url(#BLUE_1_3_)" display="inline" id="BLUE_1_2_" d="M8,47.989c0,29.633,10.365,40,40,40c29.637,0,40-10.367,40-40&#xd;&#xa;&#x9;&#x9;&#x9;c0-28.985-9.926-39.53-38.091-39.979h-3.817C17.928,8.459,8,19.004,8,47.989z"/>
   <linearGradient id="HIGHLIGHT_BLU1_1_" y1="8.2559" x1="47.9995" y2="87.5043" gradientUnits="userSpaceOnUse" x2="47.9995">
    <stop offset="0.0364" style="stop-color:#FFFDF2"/>
    <stop offset="0.1064" style="stop-color:#F5F8F0"/>
    <stop offset="0.2248" style="stop-color:#DBEBE9"/>
    <stop offset="0.3771" style="stop-color:#AFD5DF"/>
    <stop offset="0.5394" style="stop-color:#7ABAD2"/>
    <stop offset="1" style="stop-color:#00879A"/>
   </linearGradient>
   <path stroke-opacity="0.25" fill="url(#HIGHLIGHT_BLU1_1_)" display="inline" fill-opacity="0.25" id="HIGHLIGHT_BLU1" d="M48,8C18.365,8,8,18.365,8,48&#xd;&#xa;&#x9;&#x9;&#x9;c0,29.633,10.365,40,40,40c29.637,0,40-10.367,40-40C88,18.365,77.637,8,48,8z M48,87.023C18.842,87.023,9,77.176,9,48&#xd;&#xa;&#x9;&#x9;&#x9;S18.842,8.977,48,8.977S87,18.824,87,48S77.158,87.023,48,87.023z"/>
  </g>
 </g>
 <g display="none" id="VIOLET_x2F_PINK_BACKGROUNDS">
  <g display="inline" id="PINK_2_2_">
   <linearGradient id="PINK_2_3_" y1="8.0107" x1="47.9995" y2="87.9897" gradientUnits="userSpaceOnUse" x2="47.9995">
    <stop offset="0.0364" style="stop-color:#FF61C7"/>
    <stop offset="0.1942" style="stop-color:#F759C1"/>
    <stop offset="0.4381" style="stop-color:#E145B1"/>
    <stop offset="0.7357" style="stop-color:#BE2396"/>
    <stop offset="1" style="stop-color:#99007A"/>
   </linearGradient>
   <path fill="url(#PINK_2_3_)" id="PINK_2_1_" d="M8,47.988c0,29.634,10.365,40.001,40,40.001c29.637,0,40-10.367,40-40.001&#xd;&#xa;&#x9;&#x9;&#x9;c0-28.984-9.926-39.529-38.091-39.978h-3.817C17.928,8.459,8,19.004,8,47.988z"/>
   <linearGradient id="HIGHLIGHT_PI2_2_" y1="8.2554" x1="47.9995" y2="87.5043" gradientUnits="userSpaceOnUse" x2="47.9995">
    <stop offset="0.0364" style="stop-color:#FFFFFF"/>
    <stop offset="0.119" style="stop-color:#FCF7FB"/>
    <stop offset="0.2468" style="stop-color:#F3E1F0"/>
    <stop offset="0.4038" style="stop-color:#E5BEDD"/>
    <stop offset="0.5839" style="stop-color:#D18CC3"/>
    <stop offset="0.7837" style="stop-color:#B84DA2"/>
    <stop offset="0.9971" style="stop-color:#99017B"/>
    <stop offset="1" style="stop-color:#99007A"/>
   </linearGradient>
   <path stroke-opacity="0.25" fill="url(#HIGHLIGHT_PI2_2_)" fill-opacity="0.25" id="HIGHLIGHT_PI2_1_" d="M48,8C18.365,8,8,18.365,8,48&#xd;&#xa;&#x9;&#x9;&#x9;c0,29.632,10.365,40,40,40c29.637,0,40-10.367,40-40C88,18.365,77.637,8,48,8z M48,87.023C18.842,87.023,9,77.176,9,48&#xd;&#xa;&#x9;&#x9;&#x9;C9,18.824,18.842,8.976,48,8.976S87,18.824,87,48C87,77.176,77.158,87.023,48,87.023z"/>
  </g>
  <g id="PINK_1_2_">
   <linearGradient id="PINK_1_3_" y1="8.0107" x1="47.9995" y2="87.9897" gradientUnits="userSpaceOnUse" x2="47.9995">
    <stop offset="0.0364" style="stop-color:#E64DD4"/>
    <stop offset="0.2159" style="stop-color:#DE46CE"/>
    <stop offset="0.4932" style="stop-color:#C832BC"/>
    <stop offset="0.8319" style="stop-color:#A5129F"/>
    <stop offset="1" style="stop-color:#91008F"/>
   </linearGradient>
   <path fill="url(#PINK_1_3_)" display="inline" id="PINK_1_1_" d="M8,47.989c0,29.633,10.365,40,40,40c29.637,0,40-10.367,40-40&#xd;&#xa;&#x9;&#x9;&#x9;c0-28.985-9.926-39.53-38.091-39.979h-3.817C17.928,8.459,8,19.004,8,47.989z"/>
   <linearGradient id="HIGHLIGHT_PI2_3_" y1="8.2554" x1="47.9995" y2="87.5043" gradientUnits="userSpaceOnUse" x2="47.9995">
    <stop offset="0.0364" style="stop-color:#FFFFFF"/>
    <stop offset="0.119" style="stop-color:#FCF7FC"/>
    <stop offset="0.2468" style="stop-color:#F2E1F2"/>
    <stop offset="0.4038" style="stop-color:#E3BEE2"/>
    <stop offset="0.5839" style="stop-color:#CE8CCD"/>
    <stop offset="0.7837" style="stop-color:#B24DB1"/>
    <stop offset="0.9971" style="stop-color:#91018F"/>
    <stop offset="1" style="stop-color:#91008F"/>
   </linearGradient>
   <path stroke-opacity="0.25" fill="url(#HIGHLIGHT_PI2_3_)" display="inline" fill-opacity="0.25" id="HIGHLIGHT_PI2" d="M48,8C18.365,8,8,18.365,8,48&#xd;&#xa;&#x9;&#x9;&#x9;c0,29.632,10.365,40,40,40c29.637,0,40-10.367,40-40C88,18.365,77.637,8,48,8z M48,87.023C18.842,87.023,9,77.176,9,48&#xd;&#xa;&#x9;&#x9;&#x9;C9,18.824,18.842,8.976,48,8.976S87,18.824,87,48C87,77.176,77.158,87.023,48,87.023z"/>
  </g>
  <g id="VIOLET_2_2_">
   <linearGradient id="VIOLET_2_3_" y1="8.0107" x1="47.9995" y2="90.757" gradientUnits="userSpaceOnUse" x2="47.9995">
    <stop offset="0.0364" style="stop-color:#BA66E0"/>
    <stop offset="0.2174" style="stop-color:#B260D8"/>
    <stop offset="0.497" style="stop-color:#9D51C2"/>
    <stop offset="0.8385" style="stop-color:#7C379F"/>
    <stop offset="1" style="stop-color:#69298C"/>
   </linearGradient>
   <path fill="url(#VIOLET_2_3_)" display="inline" id="VIOLET_2_1_" d="M8,47.989c0,29.633,10.365,40,40,40&#xd;&#xa;&#x9;&#x9;&#x9;c29.637,0,40-10.367,40-40c0-28.985-9.926-39.53-38.091-39.979h-3.817C17.928,8.459,8,19.004,8,47.989z"/>
   <linearGradient id="HIGHLIGHT_VIO2_1_" y1="8.2554" x1="47.9995" y2="87.5043" gradientUnits="userSpaceOnUse" x2="47.9995">
    <stop offset="0.0364" style="stop-color:#FFFFFF"/>
    <stop offset="0.1299" style="stop-color:#F9F7FB"/>
    <stop offset="0.2745" style="stop-color:#EAE1EF"/>
    <stop offset="0.452" style="stop-color:#D1BEDC"/>
    <stop offset="0.6558" style="stop-color:#AF8CC1"/>
    <stop offset="0.8786" style="stop-color:#834EA0"/>
    <stop offset="1" style="stop-color:#69298C"/>
   </linearGradient>
   <path stroke-opacity="0.25" fill="url(#HIGHLIGHT_VIO2_1_)" display="inline" fill-opacity="0.25" id="HIGHLIGHT_VIO2" d="M48,8C18.365,8,8,18.365,8,48&#xd;&#xa;&#x9;&#x9;&#x9;c0,29.632,10.365,40,40,40c29.637,0,40-10.367,40-40C88,18.365,77.637,8,48,8z M48,87.023C18.842,87.023,9,77.176,9,48&#xd;&#xa;&#x9;&#x9;&#x9;C9,18.824,18.842,8.976,48,8.976S87,18.824,87,48C87,77.176,77.158,87.023,48,87.023z"/>
  </g>
  <g id="VIOLET_1_2_">
   <linearGradient id="VIOLET_1_3_" y1="9.7622" x1="47.9995" y2="89.7412" gradientUnits="userSpaceOnUse" x2="47.9995">
    <stop offset="0.0364" style="stop-color:#A14DDB"/>
    <stop offset="0.2205" style="stop-color:#9949D3"/>
    <stop offset="0.505" style="stop-color:#833CBE"/>
    <stop offset="0.8523" style="stop-color:#60299D"/>
    <stop offset="1" style="stop-color:#4F1F8C"/>
   </linearGradient>
   <path fill="url(#VIOLET_1_3_)" display="inline" id="VIOLET_1_1_" d="M8,47.989c0,29.633,10.365,40,40,40&#xd;&#xa;&#x9;&#x9;&#x9;c29.637,0,40-10.367,40-40c0-28.985-9.926-39.53-38.091-39.979h-3.817C17.928,8.459,8,19.004,8,47.989z"/>
   <linearGradient id="HIGHLIGHT_VIO1_1_" y1="8.2554" x1="47.9995" y2="87.5043" gradientUnits="userSpaceOnUse" x2="47.9995">
    <stop offset="0.0364" style="stop-color:#FFFFFF"/>
    <stop offset="1" style="stop-color:#4A1F8C"/>
   </linearGradient>
   <path stroke-opacity="0.25" fill="url(#HIGHLIGHT_VIO1_1_)" display="inline" fill-opacity="0.25" id="HIGHLIGHT_VIO1" d="M48,8C18.365,8,8,18.365,8,48&#xd;&#xa;&#x9;&#x9;&#x9;c0,29.632,10.365,40,40,40c29.637,0,40-10.367,40-40C88,18.365,77.637,8,48,8z M48,87.023C18.842,87.023,9,77.176,9,48&#xd;&#xa;&#x9;&#x9;&#x9;C9,18.824,18.842,8.977,48,8.977S87,18.824,87,48C87,77.176,77.158,87.023,48,87.023z"/>
  </g>
 </g>
 <g id="PLACE_YOUR_GRAPHIC_HERE">
  <g>
   <g>
    <path fill="#FFFFFF" id="path3560" d="M45.761,51.799c-1.699-0.756-3.662-0.154-4.758,1.327c1.221-0.591,2.667-0.67,3.987-0.082&#xd;&#xa;&#x9;&#x9;&#x9;&#x9;c1.592,0.708,2.605,2.2,2.791,3.841C48.542,54.891,47.671,52.646,45.761,51.799z"/>
    <path fill="#FFFFFF" id="path3560_1_" d="M47.632,48.956c-2.464-1.095-5.344-0.148-6.976,2.099&#xd;&#xa;&#x9;&#x9;&#x9;&#x9;c1.796-0.913,3.906-1.063,5.817-0.213c2.309,1.025,3.758,3.244,3.991,5.702C51.621,53.533,50.4,50.186,47.632,48.956z"/>
   </g>
   <g>
    <rect width="8.364" x="35.652" y="55.582" fill="#FFFFFF" height="15.835" transform="matrix(-0.8962 -0.4437 0.4437 -0.8962 47.3608 138.0802)"/>
    <g>
     <polyline fill="none" points="&#xd;&#xa;&#x9;&#x9;&#x9;&#x9;&#x9;35.236,63.361 32.575,68.74 40.071,72.451 42.732,67.072 &#x9;&#x9;&#x9;&#x9;" stroke="#FFFFFF" stroke-linejoin="round" stroke-linecap="round" stroke-width="2"/>
     <polyline fill="none" points="&#xd;&#xa;&#x9;&#x9;&#x9;&#x9;&#x9;44.432,63.637 47.093,58.259 39.596,54.55 36.935,59.928 &#x9;&#x9;&#x9;&#x9;" stroke="#FFFFFF" stroke-linejoin="round" stroke-linecap="round" stroke-width="2"/>
    </g>
   </g>
  </g>
  <g>
   <path fill="#FF8500" d="M22.664,36.715h1.687l2.168,6.123l2.2-6.123h1.685l-3.105,8.619h-1.582L22.664,36.715z"/>
   <path fill="#FF8500" d="M31.72,36.715h1.641v7.055h2.391v1.564H31.72V36.715z"/>
   <path fill="#FF8500" d="M44.921,38.229l-1.147,1.094c-0.78-0.825-1.659-1.237-2.635-1.237c-0.823,0-1.517,0.282-2.081,0.845&#xd;&#xa;&#x9;&#x9;&#x9;c-0.563,0.563-0.846,1.257-0.846,2.082c0,0.575,0.125,1.085,0.375,1.531c0.249,0.446,0.603,0.796,1.06,1.05&#xd;&#xa;&#x9;&#x9;&#x9;c0.456,0.254,0.964,0.381,1.521,0.381c0.477,0,0.911-0.089,1.306-0.267c0.395-0.178,0.827-0.501,1.3-0.97l1.112,1.161&#xd;&#xa;&#x9;&#x9;&#x9;c-0.637,0.621-1.238,1.052-1.805,1.292s-1.213,0.36-1.939,0.36c-1.34,0-2.437-0.425-3.29-1.274s-1.28-1.938-1.28-3.267&#xd;&#xa;&#x9;&#x9;&#x9;c0-0.859,0.194-1.623,0.583-2.291s0.945-1.205,1.67-1.611s1.505-0.609,2.341-0.609c0.711,0,1.396,0.15,2.054,0.451&#xd;&#xa;&#x9;&#x9;&#x9;C43.877,37.249,44.445,37.676,44.921,38.229z"/>
   <path d="M45.96,44.734c0-0.408,0.275-0.696,0.611-0.696c0.36,0,0.611,0.276,0.611,0.696s-0.228,0.696-0.623,0.696&#xd;&#xa;&#x9;&#x9;&#x9;C46.224,45.43,45.96,45.154,45.96,44.734z"/>
   <path d="M50.801,42.243c-0.066-0.02-0.137-0.033-0.213-0.039s-0.166-0.01-0.266-0.01c-0.184,0-0.354,0.038-0.516,0.115&#xd;&#xa;&#x9;&#x9;&#x9;c-0.16,0.077-0.307,0.198-0.438,0.364v2.661h-1.171v-4.038h1.132v0.649c0.166-0.254,0.348-0.441,0.543-0.562&#xd;&#xa;&#x9;&#x9;&#x9;s0.4-0.181,0.615-0.181c0.051,0,0.104,0.001,0.156,0.002c0.051,0.001,0.104,0.011,0.156,0.027V42.243z"/>
   <path d="M53.227,45.422c-0.338,0-0.639-0.048-0.902-0.144s-0.486-0.234-0.666-0.415c-0.182-0.181-0.318-0.4-0.41-0.659&#xd;&#xa;&#x9;&#x9;&#x9;c-0.094-0.259-0.141-0.553-0.141-0.881c0-0.332,0.047-0.629,0.143-0.891c0.094-0.262,0.23-0.484,0.408-0.667&#xd;&#xa;&#x9;&#x9;&#x9;c0.176-0.182,0.393-0.321,0.648-0.417s0.547-0.144,0.871-0.144c0.316,0,0.6,0.045,0.854,0.137c0.252,0.091,0.465,0.225,0.641,0.4&#xd;&#xa;&#x9;&#x9;&#x9;s0.311,0.393,0.406,0.652c0.094,0.259,0.141,0.556,0.141,0.891v0.283h-2.91c0.004,0.202,0.029,0.375,0.076,0.518&#xd;&#xa;&#x9;&#x9;&#x9;s0.111,0.261,0.193,0.354c0.08,0.093,0.176,0.16,0.285,0.203s0.23,0.063,0.363,0.063c0.219,0,0.398-0.045,0.537-0.137&#xd;&#xa;&#x9;&#x9;&#x9;c0.141-0.091,0.234-0.239,0.283-0.444h1.094c-0.039,0.211-0.113,0.398-0.225,0.559c-0.109,0.161-0.248,0.296-0.414,0.405&#xd;&#xa;&#x9;&#x9;&#x9;s-0.357,0.192-0.572,0.249S53.48,45.422,53.227,45.422z M54.057,42.883c-0.025-0.345-0.113-0.6-0.26-0.764&#xd;&#xa;&#x9;&#x9;&#x9;c-0.148-0.165-0.355-0.247-0.619-0.247c-0.24,0-0.439,0.089-0.598,0.269s-0.244,0.426-0.262,0.742H54.057z"/>
   <path d="M62.1,45.334h-1.172v-2.539c0-0.264-0.037-0.452-0.113-0.564c-0.074-0.112-0.197-0.168-0.365-0.168&#xd;&#xa;&#x9;&#x9;&#x9;c-0.145,0-0.283,0.044-0.418,0.132s-0.273,0.218-0.412,0.391v2.749h-1.162v-2.539c0-0.264-0.037-0.452-0.109-0.564&#xd;&#xa;&#x9;&#x9;&#x9;c-0.074-0.112-0.193-0.168-0.359-0.168c-0.141,0-0.281,0.044-0.422,0.132c-0.143,0.088-0.279,0.218-0.408,0.391v2.749h-1.172&#xd;&#xa;&#x9;&#x9;&#x9;v-4.038h1.133v0.508c0.352-0.4,0.754-0.601,1.211-0.601c0.303,0,0.549,0.058,0.74,0.173c0.189,0.116,0.332,0.295,0.426,0.54&#xd;&#xa;&#x9;&#x9;&#x9;c0.193-0.225,0.393-0.399,0.602-0.525c0.207-0.125,0.438-0.188,0.688-0.188c0.877,0,1.314,0.497,1.314,1.489V45.334z"/>
   <path d="M64.906,41.203c0.316,0,0.602,0.045,0.855,0.137s0.471,0.226,0.648,0.405c0.18,0.179,0.316,0.399,0.414,0.662&#xd;&#xa;&#x9;&#x9;&#x9;c0.096,0.262,0.143,0.564,0.143,0.906s-0.047,0.645-0.143,0.908c-0.098,0.264-0.234,0.484-0.414,0.662&#xd;&#xa;&#x9;&#x9;&#x9;c-0.178,0.177-0.395,0.312-0.648,0.403s-0.539,0.137-0.855,0.137c-0.314,0-0.6-0.045-0.854-0.137s-0.471-0.226-0.652-0.403&#xd;&#xa;&#x9;&#x9;&#x9;c-0.18-0.177-0.32-0.398-0.418-0.662s-0.146-0.566-0.146-0.908s0.049-0.644,0.146-0.906s0.238-0.482,0.418-0.662&#xd;&#xa;&#x9;&#x9;&#x9;c0.182-0.179,0.398-0.314,0.652-0.405S64.592,41.203,64.906,41.203z M64.906,44.582c0.268,0,0.479-0.103,0.635-0.308&#xd;&#xa;&#x9;&#x9;&#x9;s0.234-0.526,0.234-0.962s-0.078-0.757-0.234-0.962s-0.367-0.308-0.635-0.308c-0.27,0-0.482,0.103-0.637,0.308&#xd;&#xa;&#x9;&#x9;&#x9;s-0.232,0.526-0.232,0.962s0.078,0.757,0.232,0.962S64.637,44.582,64.906,44.582z"/>
   <path d="M69.697,45.344c-0.174,0.039-0.383,0.059-0.631,0.059c-0.303,0-0.537-0.04-0.703-0.12s-0.287-0.193-0.365-0.339&#xd;&#xa;&#x9;&#x9;&#x9;s-0.125-0.323-0.139-0.53c-0.016-0.207-0.023-0.437-0.023-0.691v-1.587h-0.531v-0.84h0.531v-1.011h1.158v1.011h0.664v0.84h-0.664&#xd;&#xa;&#x9;&#x9;&#x9;v1.797c0,0.127,0.008,0.232,0.027,0.315c0.018,0.083,0.043,0.147,0.074,0.193c0.033,0.045,0.072,0.077,0.121,0.095&#xd;&#xa;&#x9;&#x9;&#x9;c0.047,0.018,0.1,0.027,0.158,0.027c0.109,0,0.217-0.01,0.322-0.029V45.344z"/>
   <path d="M72.162,45.422c-0.338,0-0.639-0.048-0.902-0.144s-0.486-0.234-0.666-0.415c-0.182-0.181-0.318-0.4-0.41-0.659&#xd;&#xa;&#x9;&#x9;&#x9;c-0.094-0.259-0.141-0.553-0.141-0.881c0-0.332,0.047-0.629,0.143-0.891c0.094-0.262,0.23-0.484,0.408-0.667&#xd;&#xa;&#x9;&#x9;&#x9;c0.176-0.182,0.393-0.321,0.648-0.417s0.547-0.144,0.871-0.144c0.316,0,0.6,0.045,0.854,0.137c0.252,0.091,0.465,0.225,0.641,0.4&#xd;&#xa;&#x9;&#x9;&#x9;s0.311,0.393,0.406,0.652c0.094,0.259,0.141,0.556,0.141,0.891v0.283h-2.91c0.004,0.202,0.029,0.375,0.076,0.518&#xd;&#xa;&#x9;&#x9;&#x9;s0.111,0.261,0.193,0.354c0.08,0.093,0.176,0.16,0.285,0.203s0.23,0.063,0.363,0.063c0.219,0,0.398-0.045,0.537-0.137&#xd;&#xa;&#x9;&#x9;&#x9;c0.141-0.091,0.234-0.239,0.283-0.444h1.094c-0.039,0.211-0.113,0.398-0.225,0.559c-0.109,0.161-0.248,0.296-0.414,0.405&#xd;&#xa;&#x9;&#x9;&#x9;s-0.357,0.192-0.572,0.249S72.416,45.422,72.162,45.422z M72.992,42.883c-0.025-0.345-0.113-0.6-0.26-0.764&#xd;&#xa;&#x9;&#x9;&#x9;c-0.148-0.165-0.355-0.247-0.619-0.247c-0.24,0-0.439,0.089-0.598,0.269s-0.244,0.426-0.262,0.742H72.992z"/>
  </g>
 </g>
 <g id="DO_NOT_EDIT_-_FOCAL_ZONE_GUIDES_ONLY"/>
</svg>
